<svg id="Layer_1" data-name="Layer 1" xmlns="http://www.w3.org/2000/svg" viewBox="0 0 155.48 35.8"><defs><style>.cls-1{fill:#474b4c;}.cls-2{fill:#c6c6c6;}.cls-3{fill:#6e7f7c;}.cls-4{fill:none;stroke:#bf9500;stroke-miterlimit:10;stroke-width:0.75px;}</style></defs><title>suraj-s</title><path class="cls-1" d="M541,97.7h-1.39V96.79a0.84,0.84,0,0,0-.41-0.66,1.93,1.93,0,0,0-2,0,0.8,0.8,0,0,0-.43.66l0,0.92v0.46q0,1.09,2.1,2a3,3,0,0,1,2,3v1.39a1.14,1.14,0,0,1-.6,1,2.63,2.63,0,0,1-1.48.41H537.5a2.63,2.63,0,0,1-1.48-.41,1.16,1.16,0,0,1-.62-1v-1.39h1.39v0.92a0.8,0.8,0,0,0,.43.66,1.93,1.93,0,0,0,2,0,0.84,0.84,0,0,0,.41-0.66v-0.92l0-.46q0-1.07-2.1-2a3.1,3.1,0,0,1-2.06-3V96.33a1.17,1.17,0,0,1,.62-1,2.63,2.63,0,0,1,1.48-.41h1.39a2.63,2.63,0,0,1,1.48.41,1.15,1.15,0,0,1,.6,1V97.7Z" transform="translate(-489.81 -73.45)"/><path class="cls-1" d="M545,104.14a0.84,0.84,0,0,0,.41.66,1.94,1.94,0,0,0,1,.27,1.74,1.74,0,0,0,1-.27,0.84,0.84,0,0,0,.41-0.66v-9.2h1.39v9.68a1.14,1.14,0,0,1-.6,1,2.63,2.63,0,0,1-1.48.41H545.7a2.59,2.59,0,0,1-1.46-.41,1.16,1.16,0,0,1-.62-1V94.94H545v9.2Z" transform="translate(-489.81 -73.45)"/><path class="cls-1" d="M557.45,99.78a0.56,0.56,0,0,1-.29.47l-0.07,0,0,0a1.59,1.59,0,0,1-.6.13,1.37,1.37,0,0,1,.6.13l0.12,0.08a0.55,0.55,0,0,1,.29.47V106h-1.39v-4.14a0.84,0.84,0,0,0-.41-0.66,1.74,1.74,0,0,0-1-.27h-1.41V106h-1.39v-11h3.49a2.63,2.63,0,0,1,1.48.41,1.15,1.15,0,0,1,.6,1v3.46Zm-4.19-3.93V100h1.41a1.74,1.74,0,0,0,1-.27,0.83,0.83,0,0,0,.41-0.65v-2.3a0.84,0.84,0,0,0-.41-0.66,1.74,1.74,0,0,0-1-.27h-1.41Z" transform="translate(-489.81 -73.45)"/><path class="cls-1" d="M563.4,94.94l2.08,11H564l-0.43-2.76h-1.63L561.44,106h-1.53l2.08-11h1.41Zm0,7.37-0.67-4.2-0.67,4.2h1.34Z" transform="translate(-489.81 -73.45)"/><path class="cls-1" d="M573.21,104.61a1.14,1.14,0,0,1-.6,1,2.63,2.63,0,0,1-1.48.41h-1.41a2.59,2.59,0,0,1-1.46-.41,1.16,1.16,0,0,1-.62-1v-1.39H569v0.92a0.84,0.84,0,0,0,.41.66,1.94,1.94,0,0,0,1,.27,1.74,1.74,0,0,0,1-.27,0.83,0.83,0,0,0,.41-0.66v-9.2h1.39v9.68Z" transform="translate(-489.81 -73.45)"/><path class="cls-1" d="M585.62,97.7h-1.39V96.79a0.84,0.84,0,0,0-.41-0.66,1.93,1.93,0,0,0-2,0,0.8,0.8,0,0,0-.43.66l0,0.92v0.46q0,1.09,2.1,2a3,3,0,0,1,2,3v1.39a1.14,1.14,0,0,1-.6,1,2.63,2.63,0,0,1-1.48.41h-1.39a2.63,2.63,0,0,1-1.48-.41,1.16,1.16,0,0,1-.62-1v-1.39h1.39v0.92a0.8,0.8,0,0,0,.43.66,1.93,1.93,0,0,0,2,0,0.84,0.84,0,0,0,.41-0.66v-0.92l0-.46q0-1.07-2.1-2a3.1,3.1,0,0,1-2.06-3V96.33a1.17,1.17,0,0,1,.62-1,2.63,2.63,0,0,1,1.48-.41h1.39a2.63,2.63,0,0,1,1.48.41,1.15,1.15,0,0,1,.6,1V97.7Z" transform="translate(-489.81 -73.45)"/><path class="cls-2" d="M596.31,94.57l1.27,7.71,1.24-7.71h1.53l-2.08,10.88h-1.41l-2.08-10.88h1.53Z" transform="translate(-489.81 -73.45)"/><path class="cls-2" d="M604.64,94.57l2.08,10.88h-1.53l-0.43-2.72h-1.63l-0.45,2.72h-1.53l2.08-10.88h1.41Zm0,7.26-0.67-4.13-0.67,4.13h1.34Z" transform="translate(-489.81 -73.45)"/><path class="cls-2" d="M614.44,104.1a1.12,1.12,0,0,1-.6.95,2.66,2.66,0,0,1-1.48.4h-3.49V94.57h3.49a2.66,2.66,0,0,1,1.48.4,1.13,1.13,0,0,1,.6,1v8.16Zm-4.19-8.63v9.08h1.41a1.76,1.76,0,0,0,1-.26,0.82,0.82,0,0,0,.41-0.65V96.39a0.82,0.82,0,0,0-.41-0.65,1.76,1.76,0,0,0-1-.26h-1.41Z" transform="translate(-489.81 -73.45)"/><path class="cls-2" d="M618.17,103.64a0.82,0.82,0,0,0,.41.65,2,2,0,0,0,1,.26,1.76,1.76,0,0,0,1-.26,0.82,0.82,0,0,0,.41-0.65V94.57h1.39v9.53a1.12,1.12,0,0,1-.6.95,2.66,2.66,0,0,1-1.48.4h-1.41a2.61,2.61,0,0,1-1.46-.4,1.14,1.14,0,0,1-.62-0.95V94.57h1.39v9.06Z" transform="translate(-489.81 -73.45)"/><path class="cls-2" d="M626.09,94.57v10h4.19v0.9H624.7V94.57h1.39Z" transform="translate(-489.81 -73.45)"/><path class="cls-2" d="M635.51,94.57l2.08,10.88h-1.53l-0.43-2.72H634l-0.45,2.72H632l2.08-10.88h1.41Zm0,7.26-0.67-4.13-0.67,4.13h1.34Z" transform="translate(-489.81 -73.45)"/><path class="cls-2" d="M645.29,97.29H643.9v-0.9a0.82,0.82,0,0,0-.41-0.65,2,2,0,0,0-2,0,0.79,0.79,0,0,0-.43.65l0,0.9v0.45q0,1.07,2.1,2a3,3,0,0,1,2,3v1.37a1.12,1.12,0,0,1-.6.95,2.66,2.66,0,0,1-1.48.4h-1.39a2.66,2.66,0,0,1-1.48-.4,1.14,1.14,0,0,1-.62-0.95v-1.37h1.39v0.9a0.79,0.79,0,0,0,.43.65,2,2,0,0,0,2,0,0.82,0.82,0,0,0,.41-0.65v-0.9l0-.45q0-1.06-2.1-2a3,3,0,0,1-2.06-3V95.94a1.15,1.15,0,0,1,.62-1,2.66,2.66,0,0,1,1.48-.4h1.39a2.67,2.67,0,0,1,1.48.4,1.13,1.13,0,0,1,.6,1v1.35Z" transform="translate(-489.81 -73.45)"/><circle class="cls-3" cx="98.59" cy="31.19" r="0.82"/><line class="cls-4" x1="26.52" y1="9" x2="14.42" y2="0.3"/><line class="cls-4" x1="23.47" y1="9.13" x2="11.37" y2="0.43"/><line class="cls-4" x1="20.42" y1="9.26" x2="8.31" y2="0.56"/><line class="cls-4" x1="17.37" y1="9.39" x2="5.26" y2="0.69"/><line class="cls-4" x1="14.32" y1="9.52" x2="2.21" y2="0.82"/><line class="cls-4" x1="12.71" y1="11.41" x2="0.61" y2="2.71"/><line class="cls-4" x1="12.58" y1="14.45" x2="0.48" y2="5.75"/><line class="cls-4" x1="12.45" y1="17.49" x2="0.35" y2="8.8"/><line class="cls-4" x1="12.32" y1="20.54" x2="0.22" y2="11.84"/><line class="cls-4" x1="15.38" y1="20.41" x2="3.27" y2="11.71"/><line class="cls-4" x1="18.43" y1="20.28" x2="6.32" y2="11.58"/><line class="cls-4" x1="21.48" y1="20.15" x2="9.37" y2="11.45"/><line class="cls-4" x1="24.53" y1="20.02" x2="12.43" y2="11.32"/><line class="cls-4" x1="27.58" y1="19.89" x2="15.48" y2="11.2"/><line class="cls-4" x1="30.64" y1="19.76" x2="18.53" y2="11.07"/><line class="cls-4" x1="33.69" y1="19.63" x2="21.58" y2="10.94"/><line class="cls-4" x1="36.74" y1="19.5" x2="24.63" y2="10.81"/><line class="cls-4" x1="36.61" y1="22.55" x2="24.5" y2="13.85"/><line class="cls-4" x1="36.48" y1="25.59" x2="24.38" y2="16.89"/><line class="cls-4" x1="36.35" y1="28.63" x2="24.25" y2="19.94"/><line class="cls-4" x1="36.22" y1="31.68" x2="24.12" y2="22.98"/><line class="cls-4" x1="36.09" y1="34.72" x2="23.99" y2="26.02"/><line class="cls-4" x1="33.04" y1="34.85" x2="20.94" y2="26.15"/><line class="cls-4" x1="29.99" y1="34.98" x2="17.88" y2="26.28"/><line class="cls-4" x1="26.94" y1="35.11" x2="14.83" y2="26.41"/><line class="cls-4" x1="23.89" y1="35.24" x2="11.78" y2="26.54"/><line class="cls-4" x1="20.83" y1="35.36" x2="8.73" y2="26.67"/><line class="cls-4" x1="17.78" y1="35.49" x2="5.68" y2="26.8"/><line class="cls-4" x1="17.91" y1="32.45" x2="5.81" y2="23.76"/></svg>